Coordinates
version=1
nRows=12
nColumns=24
inDegrees=yes

Units are S.I. units (second, meters, Newtons, ...)
Angles are in degrees.

endheader
time	pelvis_tilt	pelvis_list	pelvis_rotation	pelvis_tx	pelvis_ty	pelvis_tz	hip_flexion_r	hip_adduction_r	hip_rotation_r	knee_angle_r	ankle_angle_r	subtalar_angle_r	mtp_angle_r	hip_flexion_l	hip_adduction_l	hip_rotation_l	knee_angle_l	ankle_angle_l	subtalar_angle_l	mtp_angle_l	lumbar_extension	lumbar_bending	lumbar_rotation
      1.46633333	      3.50685610	      4.88715825	     -3.03912012	      0.31394724	      1.02893985	      0.30277310	     15.64056173	     -8.47359967	     -6.27855566	    -71.82872883	     -1.91364435	     -6.01012205	      2.66453894	      5.07268344	      9.58472129	      4.74445007	    -12.04641952	      4.40971366	    -13.56845179	     -1.61640409	     -8.01871395	     -6.45589104	      5.40607498
      1.47050000	      3.50291585	      4.75277751	     -2.98467920	      0.31863023	      1.02972630	      0.30240378	     16.23143238	     -8.29962198	     -6.31651428	    -71.56679316	     -1.47103839	     -5.89519393	      2.68236903	      4.60829459	      9.46600856	      4.85331998	    -11.71670177	      4.47609740	    -13.54868556	     -1.62421435	     -8.09504108	     -6.28040594	      5.29584281
      1.47466667	      3.52318641	      4.60934993	     -2.91514346	      0.32330241	      1.03054421	      0.30200806	     16.77113020	     -8.12050302	     -6.37361342	    -71.23605145	     -1.04798936	     -5.76848486	      2.70148968	      4.11505298	      9.33980767	      4.98192347	    -11.38213884	      4.53737187	    -13.53580840	     -1.63498658	     -8.20961161	     -6.09015008	      5.16059571
      1.47883333	      3.56445659	      4.48210468	     -2.84007380	      0.32797281	      1.03134593	      0.30160542	     17.27536148	     -7.96473670	     -6.43939348	    -70.85960228	     -0.64286406	     -5.65150544	      2.72400219	      3.59167171	      9.23173305	      5.12598467	    -11.02765528	      4.58980993	    -13.54437465	     -1.65438556	     -8.33941090	     -5.92799868	      4.97450756
      1.48300000	      3.56031533	      4.33372176	     -2.74774926	      0.33262197	      1.03205736	      0.30119601	     17.80943077	     -7.77836605	     -6.51911887	    -70.42383813	     -0.27062044	     -5.62549200	      2.74053271	      3.13708993	      9.09408145	      5.24901944	    -10.71626751	      4.65025629	    -13.51447144	     -1.66562415	     -8.42521142	     -5.73004117	      4.87135372
      1.48716667	      3.60100157	      4.20915879	     -2.65182580	      0.33727323	      1.03278679	      0.30076744	     18.28024732	     -7.63036561	     -6.60710762	    -69.94107034	      0.09862618	     -5.54586026	      2.76360237	      2.61891723	      8.98588289	      5.40513234	    -10.36705940	      4.70648373	    -13.51722105	     -1.68960836	     -8.55792202	     -5.56302225	      4.66266527
      1.49133333	      3.60130439	      4.06254216	     -2.54217565	      0.34192779	      1.03344103	      0.30034275	     18.77095638	     -7.44920344	     -6.70762005	    -69.39403545	      0.44952278	     -5.57533822	      2.77700202	      2.16244852	      8.84509515	      5.51297327	    -10.05656239	      4.77227512	    -13.46831212	     -1.69810484	     -8.61929017	     -5.36016586	      4.57915117
      1.49550000	      3.63737071	      3.92707419	     -2.42046357	      0.34652888	      1.03410943	      0.29989573	     19.20865984	     -7.28864614	     -6.81518951	    -68.79665790	      0.78117459	     -5.54367716	      2.79457854	      1.66788661	      8.72007754	      5.68228451	     -9.74202350	      4.83762093	    -13.44472848	     -1.71513028	     -8.78692091	     -5.18159462	      4.39069796
      1.49966667	      3.69253382	      3.79691186	     -2.30089259	      0.35117345	      1.03476330	      0.29945789	     19.60370487	     -7.13541446	     -6.92766858	    -68.14315763	      1.08833635	     -5.57133169	      2.81503728	      1.13957222	      8.59798118	      5.84470052	     -9.39977588	      4.89197320	    -13.43888205	     -1.74307140	     -8.93096494	     -5.00816547	      4.15308299
      1.50383333	      3.70094168	      3.67966601	     -2.17024623	      0.35579594	      1.03530736	      0.29900961	     20.03815252	     -6.99419405	     -7.03944553	    -67.44564957	      1.38887362	     -5.61718347	      2.83257115	      0.68045662	      8.48553145	      5.99820480	     -9.09080763	      4.95585026	    -13.41416183	     -1.76787365	     -9.02603065	     -4.83908127	      3.98497670
      1.50800000	      3.72350119	      3.54353080	     -2.02817779	      0.36040946	      1.03585410	      0.29855851	     20.42898047	     -6.83262444	     -7.16615733	    -66.68039714	      1.68195191	     -5.69543110	      2.84505107	      0.21505315	      8.34859405	      6.14062894	     -8.79979792	      5.02545220	    -13.36725339	     -1.78498851	     -9.14201568	     -4.65569132	      3.84539090
      1.51216667	      3.73395404	      3.43492446	     -1.89343889	      0.36504652	      1.03631428	      0.29812133	     20.82417462	     -6.69921075	     -7.27806118	    -65.87846533	      1.93948261	     -5.79720269	      2.85687520	     -0.24457317	      8.23976009	      6.29700216	     -8.49121640	      5.10043756	    -13.33276550	     -1.80766474	     -9.23201064	     -4.49720477	      3.63558121
